<?xml version="1.0" standalone="no"?>
<!DOCTYPE svg PUBLIC "-//W3C//DTD SVG 20010904//EN"
 "http://www.w3.org/TR/2001/REC-SVG-20010904/DTD/svg10.dtd">
<svg version="1.0" xmlns="http://www.w3.org/2000/svg"
 width="512.000000pt" height="512.000000pt" viewBox="0 0 512.000000 512.000000"
 preserveAspectRatio="xMidYMid meet">

<g transform="translate(0.000000,512.000000) scale(0.100000,-0.100000)"
fill="#000000" stroke="none">
<path d="M397 5104 c-97 -23 -167 -63 -242 -139 -77 -77 -116 -145 -140 -247
-22 -95 -22 -4221 0 -4316 24 -102 63 -170 140 -247 77 -77 145 -116 247 -140
95 -22 4221 -22 4316 0 102 24 170 63 247 140 77 77 116 145 140 247 22 95 22
4221 0 4316 -24 102 -63 170 -140 247 -77 77 -145 116 -247 140 -92 22 -4231
21 -4321 -1z m2841 -1975 l-6 -351 42 44 c74 80 161 123 284 138 282 36 506
-117 577 -395 38 -150 38 -377 0 -528 -42 -161 -139 -288 -269 -352 -200 -98
-464 -55 -601 96 -20 23 -39 39 -41 36 -3 -2 -14 -39 -26 -81 l-20 -76 -79 0
-79 0 0 910 0 910 112 0 111 0 -5 -351z m-2050 -216 c68 -258 234 -924 243
-978 l12 -70 37 150 c34 139 261 877 282 918 8 16 22 17 121 15 l112 -3 118
-385 c65 -212 135 -452 156 -535 l39 -150 11 60 c18 87 101 418 185 735 l72
275 107 3 c76 2 107 -1 107 -9 0 -6 -79 -295 -175 -641 -96 -346 -175 -631
-175 -634 0 -2 -57 -4 -127 -4 l-128 0 -127 423 c-70 232 -140 471 -154 530
-15 59 -28 106 -30 105 -1 -2 -18 -66 -37 -143 -19 -77 -90 -314 -158 -527
l-124 -388 -122 0 c-107 0 -122 2 -127 18 -12 40 -346 1263 -346 1267 0 3 49
5 109 5 l109 0 10 -37z"/>
<path d="M3492 2780 c-64 -14 -142 -60 -174 -104 -52 -72 -70 -153 -76 -332
-8 -283 42 -429 168 -494 54 -27 152 -44 226 -37 209 20 304 173 304 492 0
324 -99 471 -322 481 -46 2 -102 -1 -126 -6z"/>
</g>
</svg>
