<?xml version="1.0" standalone="no"?>
<!DOCTYPE svg PUBLIC "-//W3C//DTD SVG 20010904//EN"
 "http://www.w3.org/TR/2001/REC-SVG-20010904/DTD/svg10.dtd">
<svg version="1.0" xmlns="http://www.w3.org/2000/svg"
 width="180.000000pt" height="180.000000pt" viewBox="0 0 180.000000 180.000000"
 preserveAspectRatio="xMidYMid meet">

<g transform="translate(0.000000,180.000000) scale(0.100000,-0.100000)"
fill="#000000" stroke="none">
<path d="M0 900 l0 -900 900 0 900 0 0 900 0 900 -900 0 -900 0 0 -900z m1218
270 c-2 -88 0 -160 5 -160 4 0 7 4 7 9 0 4 19 21 42 36 49 33 139 44 208 25
62 -16 130 -87 153 -159 21 -67 23 -208 2 -277 -33 -113 -117 -178 -230 -177
-68 0 -127 21 -167 60 -28 27 -33 25 -40 -22 -2 -15 -12 -21 -41 -23 l-37 -3
0 425 0 426 51 0 50 0 -3 -160z m-920 -260 c23 -91 51 -203 60 -249 l18 -84
17 69 c10 38 43 151 75 251 l57 183 56 0 56 0 66 -223 c37 -122 67 -230 67
-240 0 -53 21 8 69 201 71 285 60 262 121 262 27 0 50 -1 50 -2 0 -2 -38 -136
-83 -298 l-82 -295 -61 -3 -61 -3 -61 203 c-34 112 -65 218 -68 236 -10 50
-20 46 -33 -11 -9 -40 -84 -286 -126 -414 -3 -9 -25 -13 -64 -13 l-59 0 -22
83 c-12 45 -49 178 -81 295 -32 117 -59 215 -59 218 0 3 24 4 53 2 l52 -3 43
-165z"/>
<path d="M1355 1006 c-5 -3 -22 -7 -37 -10 -70 -16 -102 -95 -96 -237 6 -149
40 -197 147 -206 77 -6 118 16 151 82 21 43 25 64 25 145 0 148 -40 211 -141
224 -22 3 -43 4 -49 2z"/>
</g>
</svg>
